<svg xmlns="http://www.w3.org/2000/svg" xmlns:xlink="http://www.w3.org/1999/xlink" contentStyleType="text/css" data-diagram-type="ACTIVITY" height="2655px" preserveAspectRatio="none" style="width:1196px;height:2655px;background:#1B1B1B;" version="1.1" viewBox="0 0 1196 2655" width="1196px" zoomAndPan="magnify"><title>Student Performance Monitoring System - Activity Diagram</title><defs/><g><rect fill="#1B1B1B" height="2655" style="stroke:none;stroke-width:1;" width="1196" x="0" y="0"/><g class="title" data-source-line="1"><text fill="#FFFFFF" font-family="sans-serif" font-size="14" font-weight="bold" lengthAdjust="spacing" textLength="470.873" x="361.2771" y="32.9951">Student Performance Monitoring System - Activity Diagram</text></g><rect fill="none" height="20.9531" style="stroke:none;stroke-width:1;" width="1163.4272" x="15" y="50.042"/><ellipse cx="203.7085" cy="85.9951" fill="#DDDDDD" rx="10" ry="10" style="stroke:#DDDDDD;stroke-width:1;"/><rect fill="#313139" height="33.9688" rx="12.5" ry="12.5" style="stroke:#E7E7E7;stroke-width:0.5;" width="122.9141" x="142.2515" y="115.9951"/><text fill="#FFFFFF" font-family="sans-serif" font-size="12" lengthAdjust="spacing" textLength="102.9141" x="152.2515" y="137.1338">Open Application</text><polygon fill="#313139" points="154.0662,277.9014,253.3508,277.9014,265.3508,289.9014,253.3508,301.9014,154.0662,301.9014,142.0662,289.9014,154.0662,277.9014" style="stroke:#E7E7E7;stroke-width:0.5;"/><text fill="#FFFFFF" font-family="sans-serif" font-size="11" lengthAdjust="spacing" textLength="99.2847" x="154.0662" y="293.7095">Credentials Valid?</text><text fill="#FFFFFF" font-family="sans-serif" font-size="11" lengthAdjust="spacing" textLength="19.2178" x="122.8484" y="287.3071">Yes</text><text fill="#FFFFFF" font-family="sans-serif" font-size="11" lengthAdjust="spacing" textLength="14.9585" x="265.3508" y="287.3071">No</text><rect fill="#313139" height="33.9688" rx="12.5" ry="12.5" style="stroke:#E7E7E7;stroke-width:0.5;" width="155.2813" x="41.666" y="311.9014"/><text fill="#FFFFFF" font-family="sans-serif" font-size="12" lengthAdjust="spacing" textLength="135.2813" x="51.666" y="333.04">Redirect to Dashboard</text><rect fill="#313139" height="33.9688" rx="12.5" ry="12.5" style="stroke:#E7E7E7;stroke-width:0.5;" width="142.3262" x="216.9473" y="311.9014"/><text fill="#FFFFFF" font-family="sans-serif" font-size="12" lengthAdjust="spacing" textLength="122.3262" x="226.9473" y="333.04">Show Error Message</text><ellipse cx="288.1104" cy="376.8701" fill="none" rx="11" ry="11" style="stroke:#DDDDDD;stroke-width:1;"/><ellipse cx="288.1104" cy="376.8701" fill="#DDDDDD" rx="6" ry="6" style="stroke:#DDDDDD;stroke-width:1;"/><rect fill="#313139" height="33.9688" rx="12.5" ry="12.5" style="stroke:#E7E7E7;stroke-width:0.5;" width="154.4316" x="126.4927" y="618.1787"/><text fill="#FFFFFF" font-family="sans-serif" font-size="12" lengthAdjust="spacing" textLength="134.4316" x="136.4927" y="639.3174">Generate 12-digit PRN</text><rect fill="#313139" height="33.9688" rx="12.5" ry="12.5" style="stroke:#E7E7E7;stroke-width:0.5;" width="171.2891" x="118.064" y="672.1475"/><text fill="#FFFFFF" font-family="sans-serif" font-size="12" lengthAdjust="spacing" textLength="151.2891" x="128.064" y="693.2861">Validate PRN Uniqueness</text><rect fill="#313139" height="33.9688" rx="12.5" ry="12.5" style="stroke:#E7E7E7;stroke-width:0.5;" width="184.3203" x="111.5483" y="726.1162"/><text fill="#FFFFFF" font-family="sans-serif" font-size="12" lengthAdjust="spacing" textLength="164.3203" x="121.5483" y="747.2549">Generate Default Password</text><rect fill="#313139" height="33.9688" rx="12.5" ry="12.5" style="stroke:#E7E7E7;stroke-width:0.5;" width="159.4238" x="123.9966" y="780.085"/><text fill="#FFFFFF" font-family="sans-serif" font-size="12" lengthAdjust="spacing" textLength="139.4238" x="133.9966" y="801.2236">Send Credentials Email</text><rect fill="#313139" height="33.9688" rx="12.5" ry="12.5" style="stroke:#E7E7E7;stroke-width:0.5;" width="138.7051" x="134.356" y="995.96"/><text fill="#FFFFFF" font-family="sans-serif" font-size="12" lengthAdjust="spacing" textLength="118.7051" x="144.356" y="1017.0986">Generate StaffCode</text><rect fill="#313139" height="33.9688" rx="12.5" ry="12.5" style="stroke:#E7E7E7;stroke-width:0.5;" width="154.2559" x="126.5806" y="1049.9287"/><text fill="#FFFFFF" font-family="sans-serif" font-size="12" lengthAdjust="spacing" textLength="134.2559" x="136.5806" y="1071.0674">Send Staff Credentials</text><rect fill="#313139" height="33.9688" rx="12.5" ry="12.5" style="stroke:#E7E7E7;stroke-width:0.5;" width="87.623" x="159.897" y="1211.835"/><text fill="#FFFFFF" font-family="sans-serif" font-size="12" lengthAdjust="spacing" textLength="67.623" x="169.897" y="1232.9736">Notify Staff</text><rect fill="#313139" height="33.9688" rx="12.5" ry="12.5" style="stroke:#E7E7E7;stroke-width:0.5;" width="149.5801" x="128.9185" y="1319.7725"/><text fill="#FFFFFF" font-family="sans-serif" font-size="12" lengthAdjust="spacing" textLength="129.5801" x="138.9185" y="1340.9111">Calculate Total Marks</text><polygon fill="#313139" points="174.342,1373.7412,233.075,1373.7412,245.075,1385.7412,233.075,1397.7412,174.342,1397.7412,162.342,1385.7412,174.342,1373.7412" style="stroke:#E7E7E7;stroke-width:0.5;"/><text fill="#FFFFFF" font-family="sans-serif" font-size="11" lengthAdjust="spacing" textLength="58.7329" x="174.342" y="1389.5493">Marks Tie?</text><text fill="#FFFFFF" font-family="sans-serif" font-size="11" lengthAdjust="spacing" textLength="19.2178" x="143.1243" y="1383.147">Yes</text><text fill="#FFFFFF" font-family="sans-serif" font-size="11" lengthAdjust="spacing" textLength="14.9585" x="245.075" y="1383.147">No</text><rect fill="#313139" height="33.9688" rx="12.5" ry="12.5" style="stroke:#E7E7E7;stroke-width:0.5;" width="133.291" x="70.4077" y="1407.7412"/><text fill="#FFFFFF" font-family="sans-serif" font-size="12" lengthAdjust="spacing" textLength="113.291" x="80.4077" y="1428.8799">Sort Alphabetically</text><rect fill="#313139" height="33.9688" rx="12.5" ry="12.5" style="stroke:#E7E7E7;stroke-width:0.5;" width="93.3301" x="223.6987" y="1407.7412"/><text fill="#FFFFFF" font-family="sans-serif" font-size="12" lengthAdjust="spacing" textLength="73.3301" x="233.6987" y="1428.8799">Assign Rank</text><polygon fill="#313139" points="203.7085,1447.71,215.7085,1459.71,203.7085,1471.71,191.7085,1459.71,203.7085,1447.71" style="stroke:#E7E7E7;stroke-width:0.5;"/><polygon fill="#313139" points="156.5315,1692.0498,250.8855,1692.0498,262.8855,1704.0498,250.8855,1716.0498,156.5315,1716.0498,144.5315,1704.0498,156.5315,1692.0498" style="stroke:#E7E7E7;stroke-width:0.5;"/><text fill="#FFFFFF" font-family="sans-serif" font-size="11" lengthAdjust="spacing" textLength="94.354" x="156.5315" y="1707.8579">Before Deadline?</text><text fill="#FFFFFF" font-family="sans-serif" font-size="11" lengthAdjust="spacing" textLength="19.2178" x="125.3137" y="1701.4556">Yes</text><text fill="#FFFFFF" font-family="sans-serif" font-size="11" lengthAdjust="spacing" textLength="14.9585" x="262.8855" y="1701.4556">No</text><rect fill="#313139" height="33.9688" rx="12.5" ry="12.5" style="stroke:#E7E7E7;stroke-width:0.5;" width="171.7988" x="21" y="1726.0498"/><text fill="#FFFFFF" font-family="sans-serif" font-size="12" lengthAdjust="spacing" textLength="151.7988" x="31" y="1747.1885">Enable Add Marks Button</text><rect fill="#313139" height="33.9688" rx="12.5" ry="12.5" style="stroke:#E7E7E7;stroke-width:0.5;" width="175.4375" x="212.7988" y="1726.0498"/><text fill="#FFFFFF" font-family="sans-serif" font-size="12" lengthAdjust="spacing" textLength="155.4375" x="222.7988" y="1747.1885">Disable Add Marks Button</text><ellipse cx="300.5176" cy="1791.0186" fill="none" rx="11" ry="11" style="stroke:#DDDDDD;stroke-width:1;"/><ellipse cx="300.5176" cy="1791.0186" fill="#DDDDDD" rx="6" ry="6" style="stroke:#DDDDDD;stroke-width:1;"/><rect fill="#313139" height="33.9688" rx="12.5" ry="12.5" style="stroke:#E7E7E7;stroke-width:0.5;" width="130.25" x="138.5835" y="1983.9248"/><text fill="#FFFFFF" font-family="sans-serif" font-size="12" lengthAdjust="spacing" textLength="110.25" x="148.5835" y="2005.0635">Validate 40% Rule</text><rect fill="#313139" height="33.9688" rx="12.5" ry="12.5" style="stroke:#E7E7E7;stroke-width:0.5;" width="89.1113" x="159.1528" y="2037.8936"/><text fill="#FFFFFF" font-family="sans-serif" font-size="12" lengthAdjust="spacing" textLength="69.1113" x="169.1528" y="2059.0322">Save Marks</text><rect fill="#313139" height="33.9688" rx="12.5" ry="12.5" style="stroke:#E7E7E7;stroke-width:0.5;" width="183.6758" x="111.8706" y="2361.1709"/><text fill="#FFFFFF" font-family="sans-serif" font-size="12" lengthAdjust="spacing" textLength="163.6758" x="121.8706" y="2382.3096">Display Subject-wise Marks</text><rect fill="#313139" height="33.9688" rx="12.5" ry="12.5" style="stroke:#E7E7E7;stroke-width:0.5;" width="173.9727" x="116.7222" y="2415.1396"/><text fill="#FFFFFF" font-family="sans-serif" font-size="12" lengthAdjust="spacing" textLength="153.9727" x="126.7222" y="2436.2783">Calculate Pass/Fail Status</text><rect fill="#313139" height="33.9688" rx="12.5" ry="12.5" style="stroke:#E7E7E7;stroke-width:0.5;" width="144.002" x="131.7075" y="2469.1084"/><text fill="#FFFFFF" font-family="sans-serif" font-size="12" lengthAdjust="spacing" textLength="124.002" x="141.7075" y="2490.2471">Display Course Rank</text><line style="stroke:#FFFFFF;stroke-width:1.5;" x1="15" x2="15" y1="50.042" y2="2643.0459"/><rect fill="#313139" height="33.9688" rx="12.5" ry="12.5" style="stroke:#E7E7E7;stroke-width:0.5;" width="87.2305" x="434.9717" y="169.9639"/><text fill="#FFFFFF" font-family="sans-serif" font-size="12" lengthAdjust="spacing" textLength="67.2305" x="444.9717" y="191.1025">Select Role</text><rect fill="#313139" height="33.9688" rx="12.5" ry="12.5" style="stroke:#E7E7E7;stroke-width:0.5;" width="160.7012" x="398.2363" y="223.9326"/><text fill="#FFFFFF" font-family="sans-serif" font-size="12" lengthAdjust="spacing" textLength="140.7012" x="408.2363" y="245.0713">Enter Login Credentials</text><rect fill="#313139" height="33.9688" rx="12.5" ry="12.5" style="stroke:#E7E7E7;stroke-width:0.5;" width="61.2969" x="447.9385" y="2567.0771"/><text fill="#FFFFFF" font-family="sans-serif" font-size="12" lengthAdjust="spacing" textLength="41.2969" x="457.9385" y="2588.2158">Logout</text><ellipse cx="478.5869" cy="2632.0459" fill="none" rx="11" ry="11" style="stroke:#DDDDDD;stroke-width:1;"/><ellipse cx="478.5869" cy="2632.0459" fill="#DDDDDD" rx="6" ry="6" style="stroke:#DDDDDD;stroke-width:1;"/><line style="stroke:#FFFFFF;stroke-width:1.5;" x1="392.2363" x2="392.2363" y1="50.042" y2="2643.0459"/><rect fill="#313139" height="33.9688" rx="12.5" ry="12.5" style="stroke:#E7E7E7;stroke-width:0.5;" width="187.7246" x="568.9375" y="456.2725"/><text fill="#FFFFFF" font-family="sans-serif" font-size="12" lengthAdjust="spacing" textLength="167.7246" x="578.9375" y="477.4111">Manage Courses &amp; Subjects</text><rect fill="#313139" height="33.9688" rx="12.5" ry="12.5" style="stroke:#E7E7E7;stroke-width:0.5;" width="182.4746" x="571.5625" y="510.2412"/><text fill="#FFFFFF" font-family="sans-serif" font-size="12" lengthAdjust="spacing" textLength="162.4746" x="581.5625" y="531.3799">Configure Marking Scheme</text><rect fill="#313139" height="33.9688" rx="12.5" ry="12.5" style="stroke:#E7E7E7;stroke-width:0.5;" width="105.1836" x="610.208" y="564.21"/><text fill="#FFFFFF" font-family="sans-serif" font-size="12" lengthAdjust="spacing" textLength="85.1836" x="620.208" y="585.3486">Enroll Student</text><rect fill="#313139" height="33.9688" rx="12.5" ry="12.5" style="stroke:#E7E7E7;stroke-width:0.5;" width="105.8457" x="609.877" y="834.0537"/><text fill="#FFFFFF" font-family="sans-serif" font-size="12" lengthAdjust="spacing" textLength="85.8457" x="619.877" y="855.1924">Create Course</text><rect fill="#313139" height="33.9688" rx="12.5" ry="12.5" style="stroke:#E7E7E7;stroke-width:0.5;" width="178.1445" x="573.7275" y="888.0225"/><text fill="#FFFFFF" font-family="sans-serif" font-size="12" lengthAdjust="spacing" textLength="158.1445" x="583.7275" y="909.1611">Assign Students to Course</text><rect fill="#313139" height="33.9688" rx="12.5" ry="12.5" style="stroke:#E7E7E7;stroke-width:0.5;" width="144.5527" x="590.5234" y="941.9912"/><text fill="#FFFFFF" font-family="sans-serif" font-size="12" lengthAdjust="spacing" textLength="124.5527" x="600.5234" y="963.1299">Create Staff Account</text><rect fill="#313139" height="33.9688" rx="12.5" ry="12.5" style="stroke:#E7E7E7;stroke-width:0.5;" width="138.7695" x="593.415" y="1103.8975"/><text fill="#FFFFFF" font-family="sans-serif" font-size="12" lengthAdjust="spacing" textLength="118.7695" x="603.415" y="1125.0361">Assign Task to Staff</text><rect fill="#313139" height="33.9688" rx="12.5" ry="12.5" style="stroke:#E7E7E7;stroke-width:0.5;" width="96.7695" x="614.415" y="1157.8662"/><text fill="#FFFFFF" font-family="sans-serif" font-size="12" lengthAdjust="spacing" textLength="76.7695" x="624.415" y="1179.0049">Set Deadline</text><rect fill="#313139" height="33.9688" rx="12.5" ry="12.5" style="stroke:#E7E7E7;stroke-width:0.5;" width="107.6094" x="608.9951" y="1265.8037"/><text fill="#FFFFFF" font-family="sans-serif" font-size="12" lengthAdjust="spacing" textLength="87.6094" x="618.9951" y="1286.9424">View Rankings</text><polygon fill="#313139" points="620.3628,407.8701,705.2368,407.8701,717.2368,419.8701,705.2368,431.8701,620.3628,431.8701,608.3628,419.8701,620.3628,407.8701" style="stroke:#E7E7E7;stroke-width:0.5;"/><text fill="#FFFFFF" font-family="sans-serif" font-size="11" lengthAdjust="spacing" textLength="19.2178" x="666.7998" y="442.0806">Yes</text><text fill="#FFFFFF" font-family="sans-serif" font-size="11" lengthAdjust="spacing" textLength="84.874" x="620.3628" y="423.6782">Role == Admin</text><polygon fill="#313139" points="662.7998,1491.71,674.7998,1503.71,662.7998,1515.71,650.7998,1503.71,662.7998,1491.71" style="stroke:#E7E7E7;stroke-width:0.5;"/><line style="stroke:#FFFFFF;stroke-width:1.5;" x1="562.9375" x2="562.9375" y1="50.042" y2="2643.0459"/><rect fill="#313139" height="33.9688" rx="12.5" ry="12.5" style="stroke:#E7E7E7;stroke-width:0.5;" width="144.7754" x="795.6621" y="1584.1123"/><text fill="#FFFFFF" font-family="sans-serif" font-size="12" lengthAdjust="spacing" textLength="124.7754" x="805.6621" y="1605.251">View Assigned Tasks</text><rect fill="#313139" height="33.9688" rx="12.5" ry="12.5" style="stroke:#E7E7E7;stroke-width:0.5;" width="88.7188" x="823.6904" y="1638.0811"/><text fill="#FFFFFF" font-family="sans-serif" font-size="12" lengthAdjust="spacing" textLength="68.7188" x="833.6904" y="1659.2197">Select Task</text><rect fill="#313139" height="33.9688" rx="12.5" ry="12.5" style="stroke:#E7E7E7;stroke-width:0.5;" width="137.375" x="799.3623" y="1822.0186"/><text fill="#FFFFFF" font-family="sans-serif" font-size="12" lengthAdjust="spacing" textLength="117.375" x="809.3623" y="1843.1572">Enter Theory Marks</text><rect fill="#313139" height="33.9688" rx="12.5" ry="12.5" style="stroke:#E7E7E7;stroke-width:0.5;" width="117.3359" x="809.3818" y="1875.9873"/><text fill="#FFFFFF" font-family="sans-serif" font-size="12" lengthAdjust="spacing" textLength="97.3359" x="819.3818" y="1897.126">Enter Lab Marks</text><rect fill="#313139" height="33.9688" rx="12.5" ry="12.5" style="stroke:#E7E7E7;stroke-width:0.5;" width="142.1387" x="796.9805" y="1929.9561"/><text fill="#FFFFFF" font-family="sans-serif" font-size="12" lengthAdjust="spacing" textLength="122.1387" x="806.9805" y="1951.0947">Enter Internal Marks</text><polygon fill="#313139" points="830.3474,1535.71,905.7522,1535.71,917.7522,1547.71,905.7522,1559.71,830.3474,1559.71,818.3474,1547.71,830.3474,1535.71" style="stroke:#E7E7E7;stroke-width:0.5;"/><text fill="#FFFFFF" font-family="sans-serif" font-size="11" lengthAdjust="spacing" textLength="19.2178" x="872.0498" y="1569.9204">Yes</text><text fill="#FFFFFF" font-family="sans-serif" font-size="11" lengthAdjust="spacing" textLength="75.4048" x="830.3474" y="1551.5181">Role == Staff</text><polygon fill="#313139" points="868.0498,2091.8623,880.0498,2103.8623,868.0498,2115.8623,856.0498,2103.8623,868.0498,2091.8623" style="stroke:#E7E7E7;stroke-width:0.5;"/><line style="stroke:#FFFFFF;stroke-width:1.5;" x1="789.6621" x2="789.6621" y1="50.042" y2="2643.0459"/><rect fill="#313139" height="33.9688" rx="12.5" ry="12.5" style="stroke:#E7E7E7;stroke-width:0.5;" width="90.3418" x="1016.3311" y="2184.2646"/><text fill="#FFFFFF" font-family="sans-serif" font-size="12" lengthAdjust="spacing" textLength="70.3418" x="1026.3311" y="2205.4033">View Profile</text><rect fill="#313139" height="33.9688" rx="12.5" ry="12.5" style="stroke:#E7E7E7;stroke-width:0.5;" width="164.1289" x="979.4375" y="2238.2334"/><text fill="#FFFFFF" font-family="sans-serif" font-size="12" lengthAdjust="spacing" textLength="144.1289" x="989.4375" y="2259.3721">Update Personal Details</text><rect fill="#313139" height="33.9688" rx="12.5" ry="12.5" style="stroke:#E7E7E7;stroke-width:0.5;" width="161.334" x="980.835" y="2292.2021"/><text fill="#FFFFFF" font-family="sans-serif" font-size="12" lengthAdjust="spacing" textLength="141.334" x="990.835" y="2313.3408">View Performance Card</text><polygon fill="#313139" points="1015.0393,2135.8623,1107.9646,2135.8623,1119.9646,2147.8623,1107.9646,2159.8623,1015.0393,2159.8623,1003.0393,2147.8623,1015.0393,2135.8623" style="stroke:#E7E7E7;stroke-width:0.5;"/><text fill="#FFFFFF" font-family="sans-serif" font-size="11" lengthAdjust="spacing" textLength="19.2178" x="1065.502" y="2170.0728">Yes</text><text fill="#FFFFFF" font-family="sans-serif" font-size="11" lengthAdjust="spacing" textLength="92.9253" x="1015.0393" y="2151.6704">Role == Student</text><polygon fill="#313139" points="1061.502,2523.0771,1073.502,2535.0771,1061.502,2547.0771,1049.502,2535.0771,1061.502,2523.0771" style="stroke:#E7E7E7;stroke-width:0.5;"/><line style="stroke:#FFFFFF;stroke-width:1.5;" x1="973.4375" x2="973.4375" y1="50.042" y2="2643.0459"/><line style="stroke:#FFFFFF;stroke-width:1.5;" x1="1176.5664" x2="1176.5664" y1="50.042" y2="2643.0459"/><line style="stroke:#E7E7E7;stroke-width:1;" x1="203.7085" x2="203.7085" y1="95.9951" y2="115.9951"/><polygon fill="#E7E7E7" points="199.7085,105.9951,203.7085,115.9951,207.7085,105.9951,203.7085,109.9951" style="stroke:#E7E7E7;stroke-width:1;"/><line style="stroke:#E7E7E7;stroke-width:1;" x1="288.1104" x2="288.1104" y1="345.8701" y2="365.8701"/><polygon fill="#E7E7E7" points="284.1104,355.8701,288.1104,365.8701,292.1104,355.8701,288.1104,359.8701" style="stroke:#E7E7E7;stroke-width:1;"/><line style="stroke:#E7E7E7;stroke-width:1;" x1="142.0662" x2="119.3066" y1="289.9014" y2="289.9014"/><line style="stroke:#E7E7E7;stroke-width:1;" x1="119.3066" x2="119.3066" y1="289.9014" y2="311.9014"/><polygon fill="#E7E7E7" points="115.3066,301.9014,119.3066,311.9014,123.3066,301.9014,119.3066,305.9014" style="stroke:#E7E7E7;stroke-width:1;"/><line style="stroke:#E7E7E7;stroke-width:1;" x1="265.3508" x2="288.1104" y1="289.9014" y2="289.9014"/><line style="stroke:#E7E7E7;stroke-width:1;" x1="288.1104" x2="288.1104" y1="289.9014" y2="311.9014"/><polygon fill="#E7E7E7" points="284.1104,301.9014,288.1104,311.9014,292.1104,301.9014,288.1104,305.9014" style="stroke:#E7E7E7;stroke-width:1;"/><line style="stroke:#E7E7E7;stroke-width:1;" x1="119.3066" x2="119.3066" y1="345.8701" y2="392.8701"/><line style="stroke:#E7E7E7;stroke-width:1;" x1="119.3066" x2="662.7998" y1="392.8701" y2="392.8701"/><line style="stroke:#E7E7E7;stroke-width:1;" x1="662.7998" x2="662.7998" y1="392.8701" y2="407.8701"/><polygon fill="#E7E7E7" points="658.7998,397.8701,662.7998,407.8701,666.7998,397.8701,662.7998,401.8701" style="stroke:#E7E7E7;stroke-width:1;"/><line style="stroke:#E7E7E7;stroke-width:1;" x1="203.7085" x2="203.7085" y1="652.1475" y2="672.1475"/><polygon fill="#E7E7E7" points="199.7085,662.1475,203.7085,672.1475,207.7085,662.1475,203.7085,666.1475" style="stroke:#E7E7E7;stroke-width:1;"/><line style="stroke:#E7E7E7;stroke-width:1;" x1="203.7085" x2="203.7085" y1="706.1162" y2="726.1162"/><polygon fill="#E7E7E7" points="199.7085,716.1162,203.7085,726.1162,207.7085,716.1162,203.7085,720.1162" style="stroke:#E7E7E7;stroke-width:1;"/><line style="stroke:#E7E7E7;stroke-width:1;" x1="203.7085" x2="203.7085" y1="760.085" y2="780.085"/><polygon fill="#E7E7E7" points="199.7085,770.085,203.7085,780.085,207.7085,770.085,203.7085,774.085" style="stroke:#E7E7E7;stroke-width:1;"/><line style="stroke:#E7E7E7;stroke-width:1;" x1="203.7085" x2="203.7085" y1="1029.9287" y2="1049.9287"/><polygon fill="#E7E7E7" points="199.7085,1039.9287,203.7085,1049.9287,207.7085,1039.9287,203.7085,1043.9287" style="stroke:#E7E7E7;stroke-width:1;"/><line style="stroke:#E7E7E7;stroke-width:1;" x1="162.342" x2="137.0532" y1="1385.7412" y2="1385.7412"/><line style="stroke:#E7E7E7;stroke-width:1;" x1="137.0532" x2="137.0532" y1="1385.7412" y2="1407.7412"/><polygon fill="#E7E7E7" points="133.0532,1397.7412,137.0532,1407.7412,141.0532,1397.7412,137.0532,1401.7412" style="stroke:#E7E7E7;stroke-width:1;"/><line style="stroke:#E7E7E7;stroke-width:1;" x1="245.075" x2="270.3638" y1="1385.7412" y2="1385.7412"/><line style="stroke:#E7E7E7;stroke-width:1;" x1="270.3638" x2="270.3638" y1="1385.7412" y2="1407.7412"/><polygon fill="#E7E7E7" points="266.3638,1397.7412,270.3638,1407.7412,274.3638,1397.7412,270.3638,1401.7412" style="stroke:#E7E7E7;stroke-width:1;"/><line style="stroke:#E7E7E7;stroke-width:1;" x1="137.0532" x2="137.0532" y1="1441.71" y2="1459.71"/><line style="stroke:#E7E7E7;stroke-width:1;" x1="137.0532" x2="191.7085" y1="1459.71" y2="1459.71"/><polygon fill="#E7E7E7" points="181.7085,1455.71,191.7085,1459.71,181.7085,1463.71,185.7085,1459.71" style="stroke:#E7E7E7;stroke-width:1;"/><line style="stroke:#E7E7E7;stroke-width:1;" x1="270.3638" x2="270.3638" y1="1441.71" y2="1459.71"/><line style="stroke:#E7E7E7;stroke-width:1;" x1="270.3638" x2="215.7085" y1="1459.71" y2="1459.71"/><polygon fill="#E7E7E7" points="225.7085,1455.71,215.7085,1459.71,225.7085,1463.71,221.7085,1459.71" style="stroke:#E7E7E7;stroke-width:1;"/><line style="stroke:#E7E7E7;stroke-width:1;" x1="203.7085" x2="203.7085" y1="1353.7412" y2="1373.7412"/><polygon fill="#E7E7E7" points="199.7085,1363.7412,203.7085,1373.7412,207.7085,1363.7412,203.7085,1367.7412" style="stroke:#E7E7E7;stroke-width:1;"/><line style="stroke:#E7E7E7;stroke-width:1;" x1="300.5176" x2="300.5176" y1="1760.0186" y2="1780.0186"/><polygon fill="#E7E7E7" points="296.5176,1770.0186,300.5176,1780.0186,304.5176,1770.0186,300.5176,1774.0186" style="stroke:#E7E7E7;stroke-width:1;"/><line style="stroke:#E7E7E7;stroke-width:1;" x1="144.5315" x2="106.8994" y1="1704.0498" y2="1704.0498"/><line style="stroke:#E7E7E7;stroke-width:1;" x1="106.8994" x2="106.8994" y1="1704.0498" y2="1726.0498"/><polygon fill="#E7E7E7" points="102.8994,1716.0498,106.8994,1726.0498,110.8994,1716.0498,106.8994,1720.0498" style="stroke:#E7E7E7;stroke-width:1;"/><line style="stroke:#E7E7E7;stroke-width:1;" x1="262.8855" x2="300.5176" y1="1704.0498" y2="1704.0498"/><line style="stroke:#E7E7E7;stroke-width:1;" x1="300.5176" x2="300.5176" y1="1704.0498" y2="1726.0498"/><polygon fill="#E7E7E7" points="296.5176,1716.0498,300.5176,1726.0498,304.5176,1716.0498,300.5176,1720.0498" style="stroke:#E7E7E7;stroke-width:1;"/><line style="stroke:#E7E7E7;stroke-width:1;" x1="106.8994" x2="106.8994" y1="1760.0186" y2="1807.0186"/><line style="stroke:#E7E7E7;stroke-width:1;" x1="106.8994" x2="868.0498" y1="1807.0186" y2="1807.0186"/><line style="stroke:#E7E7E7;stroke-width:1;" x1="868.0498" x2="868.0498" y1="1807.0186" y2="1822.0186"/><polygon fill="#E7E7E7" points="864.0498,1812.0186,868.0498,1822.0186,872.0498,1812.0186,868.0498,1816.0186" style="stroke:#E7E7E7;stroke-width:1;"/><line style="stroke:#E7E7E7;stroke-width:1;" x1="203.7085" x2="203.7085" y1="2017.8936" y2="2037.8936"/><polygon fill="#E7E7E7" points="199.7085,2027.8936,203.7085,2037.8936,207.7085,2027.8936,203.7085,2031.8936" style="stroke:#E7E7E7;stroke-width:1;"/><line style="stroke:#E7E7E7;stroke-width:1;" x1="203.7085" x2="203.7085" y1="2395.1396" y2="2415.1396"/><polygon fill="#E7E7E7" points="199.7085,2405.1396,203.7085,2415.1396,207.7085,2405.1396,203.7085,2409.1396" style="stroke:#E7E7E7;stroke-width:1;"/><line style="stroke:#E7E7E7;stroke-width:1;" x1="203.7085" x2="203.7085" y1="2449.1084" y2="2469.1084"/><polygon fill="#E7E7E7" points="199.7085,2459.1084,203.7085,2469.1084,207.7085,2459.1084,203.7085,2463.1084" style="stroke:#E7E7E7;stroke-width:1;"/><line style="stroke:#E7E7E7;stroke-width:1;" x1="478.5869" x2="478.5869" y1="203.9326" y2="223.9326"/><polygon fill="#E7E7E7" points="474.5869,213.9326,478.5869,223.9326,482.5869,213.9326,478.5869,217.9326" style="stroke:#E7E7E7;stroke-width:1;"/><line style="stroke:#E7E7E7;stroke-width:1;" x1="478.5869" x2="478.5869" y1="2601.0459" y2="2621.0459"/><polygon fill="#E7E7E7" points="474.5869,2611.0459,478.5869,2621.0459,482.5869,2611.0459,478.5869,2615.0459" style="stroke:#E7E7E7;stroke-width:1;"/><line style="stroke:#E7E7E7;stroke-width:1;" x1="662.7998" x2="662.7998" y1="490.2412" y2="510.2412"/><polygon fill="#E7E7E7" points="658.7998,500.2412,662.7998,510.2412,666.7998,500.2412,662.7998,504.2412" style="stroke:#E7E7E7;stroke-width:1;"/><line style="stroke:#E7E7E7;stroke-width:1;" x1="662.7998" x2="662.7998" y1="544.21" y2="564.21"/><polygon fill="#E7E7E7" points="658.7998,554.21,662.7998,564.21,666.7998,554.21,662.7998,558.21" style="stroke:#E7E7E7;stroke-width:1;"/><line style="stroke:#E7E7E7;stroke-width:1;" x1="662.7998" x2="662.7998" y1="868.0225" y2="888.0225"/><polygon fill="#E7E7E7" points="658.7998,878.0225,662.7998,888.0225,666.7998,878.0225,662.7998,882.0225" style="stroke:#E7E7E7;stroke-width:1;"/><line style="stroke:#E7E7E7;stroke-width:1;" x1="662.7998" x2="662.7998" y1="921.9912" y2="941.9912"/><polygon fill="#E7E7E7" points="658.7998,931.9912,662.7998,941.9912,666.7998,931.9912,662.7998,935.9912" style="stroke:#E7E7E7;stroke-width:1;"/><line style="stroke:#E7E7E7;stroke-width:1;" x1="662.7998" x2="662.7998" y1="1137.8662" y2="1157.8662"/><polygon fill="#E7E7E7" points="658.7998,1147.8662,662.7998,1157.8662,666.7998,1147.8662,662.7998,1151.8662" style="stroke:#E7E7E7;stroke-width:1;"/><line style="stroke:#E7E7E7;stroke-width:1;" x1="662.7998" x2="662.7998" y1="431.8701" y2="456.2725"/><polygon fill="#E7E7E7" points="658.7998,446.2725,662.7998,456.2725,666.7998,446.2725,662.7998,450.2725" style="stroke:#E7E7E7;stroke-width:1;"/><line style="stroke:#E7E7E7;stroke-width:1;" x1="717.2368" x2="770.6621" y1="419.8701" y2="419.8701"/><polygon fill="#E7E7E7" points="766.6621,946.4912,770.6621,956.4912,774.6621,946.4912,770.6621,950.4912" style="stroke:#E7E7E7;stroke-width:1;"/><line style="stroke:#E7E7E7;stroke-width:1;" x1="770.6621" x2="770.6621" y1="419.8701" y2="1503.71"/><line style="stroke:#E7E7E7;stroke-width:1;" x1="770.6621" x2="674.7998" y1="1503.71" y2="1503.71"/><polygon fill="#E7E7E7" points="684.7998,1499.71,674.7998,1503.71,684.7998,1507.71,680.7998,1503.71" style="stroke:#E7E7E7;stroke-width:1;"/><line style="stroke:#E7E7E7;stroke-width:1;" x1="868.0498" x2="868.0498" y1="1618.0811" y2="1638.0811"/><polygon fill="#E7E7E7" points="864.0498,1628.0811,868.0498,1638.0811,872.0498,1628.0811,868.0498,1632.0811" style="stroke:#E7E7E7;stroke-width:1;"/><line style="stroke:#E7E7E7;stroke-width:1;" x1="868.0498" x2="868.0498" y1="1855.9873" y2="1875.9873"/><polygon fill="#E7E7E7" points="864.0498,1865.9873,868.0498,1875.9873,872.0498,1865.9873,868.0498,1869.9873" style="stroke:#E7E7E7;stroke-width:1;"/><line style="stroke:#E7E7E7;stroke-width:1;" x1="868.0498" x2="868.0498" y1="1909.9561" y2="1929.9561"/><polygon fill="#E7E7E7" points="864.0498,1919.9561,868.0498,1929.9561,872.0498,1919.9561,868.0498,1923.9561" style="stroke:#E7E7E7;stroke-width:1;"/><line style="stroke:#E7E7E7;stroke-width:1;" x1="868.0498" x2="868.0498" y1="1559.71" y2="1584.1123"/><polygon fill="#E7E7E7" points="864.0498,1574.1123,868.0498,1584.1123,872.0498,1574.1123,868.0498,1578.1123" style="stroke:#E7E7E7;stroke-width:1;"/><line style="stroke:#E7E7E7;stroke-width:1;" x1="917.7522" x2="954.4375" y1="1547.71" y2="1547.71"/><polygon fill="#E7E7E7" points="950.4375,1814.9873,954.4375,1824.9873,958.4375,1814.9873,954.4375,1818.9873" style="stroke:#E7E7E7;stroke-width:1;"/><line style="stroke:#E7E7E7;stroke-width:1;" x1="954.4375" x2="954.4375" y1="1547.71" y2="2103.8623"/><line style="stroke:#E7E7E7;stroke-width:1;" x1="954.4375" x2="880.0498" y1="2103.8623" y2="2103.8623"/><polygon fill="#E7E7E7" points="890.0498,2099.8623,880.0498,2103.8623,890.0498,2107.8623,886.0498,2103.8623" style="stroke:#E7E7E7;stroke-width:1;"/><line style="stroke:#E7E7E7;stroke-width:1;" x1="1061.502" x2="1061.502" y1="2218.2334" y2="2238.2334"/><polygon fill="#E7E7E7" points="1057.502,2228.2334,1061.502,2238.2334,1065.502,2228.2334,1061.502,2232.2334" style="stroke:#E7E7E7;stroke-width:1;"/><line style="stroke:#E7E7E7;stroke-width:1;" x1="1061.502" x2="1061.502" y1="2272.2021" y2="2292.2021"/><polygon fill="#E7E7E7" points="1057.502,2282.2021,1061.502,2292.2021,1065.502,2282.2021,1061.502,2286.2021" style="stroke:#E7E7E7;stroke-width:1;"/><line style="stroke:#E7E7E7;stroke-width:1;" x1="1061.502" x2="1061.502" y1="2159.8623" y2="2184.2646"/><polygon fill="#E7E7E7" points="1057.502,2174.2646,1061.502,2184.2646,1065.502,2174.2646,1061.502,2178.2646" style="stroke:#E7E7E7;stroke-width:1;"/><line style="stroke:#E7E7E7;stroke-width:1;" x1="1119.9646" x2="1157.5664" y1="2147.8623" y2="2147.8623"/><polygon fill="#E7E7E7" points="1153.5664,2333.6709,1157.5664,2343.6709,1161.5664,2333.6709,1157.5664,2337.6709" style="stroke:#E7E7E7;stroke-width:1;"/><line style="stroke:#E7E7E7;stroke-width:1;" x1="1157.5664" x2="1157.5664" y1="2147.8623" y2="2535.0771"/><line style="stroke:#E7E7E7;stroke-width:1;" x1="1157.5664" x2="1073.502" y1="2535.0771" y2="2535.0771"/><polygon fill="#E7E7E7" points="1083.502,2531.0771,1073.502,2535.0771,1083.502,2539.0771,1079.502,2535.0771" style="stroke:#E7E7E7;stroke-width:1;"/><line style="stroke:#E7E7E7;stroke-width:1;" x1="203.7085" x2="203.7085" y1="149.9639" y2="154.9639"/><line style="stroke:#E7E7E7;stroke-width:1;" x1="203.7085" x2="478.5869" y1="154.9639" y2="154.9639"/><line style="stroke:#E7E7E7;stroke-width:1;" x1="478.5869" x2="478.5869" y1="154.9639" y2="169.9639"/><polygon fill="#E7E7E7" points="474.5869,159.9639,478.5869,169.9639,482.5869,159.9639,478.5869,163.9639" style="stroke:#E7E7E7;stroke-width:1;"/><line style="stroke:#E7E7E7;stroke-width:1;" x1="478.5869" x2="478.5869" y1="257.9014" y2="262.9014"/><line style="stroke:#E7E7E7;stroke-width:1;" x1="478.5869" x2="203.7085" y1="262.9014" y2="262.9014"/><line style="stroke:#E7E7E7;stroke-width:1;" x1="203.7085" x2="203.7085" y1="262.9014" y2="277.9014"/><polygon fill="#E7E7E7" points="199.7085,267.9014,203.7085,277.9014,207.7085,267.9014,203.7085,271.9014" style="stroke:#E7E7E7;stroke-width:1;"/><line style="stroke:#E7E7E7;stroke-width:1;" x1="662.7998" x2="662.7998" y1="598.1787" y2="603.1787"/><line style="stroke:#E7E7E7;stroke-width:1;" x1="662.7998" x2="203.7085" y1="603.1787" y2="603.1787"/><line style="stroke:#E7E7E7;stroke-width:1;" x1="203.7085" x2="203.7085" y1="603.1787" y2="618.1787"/><polygon fill="#E7E7E7" points="199.7085,608.1787,203.7085,618.1787,207.7085,608.1787,203.7085,612.1787" style="stroke:#E7E7E7;stroke-width:1;"/><line style="stroke:#E7E7E7;stroke-width:1;" x1="203.7085" x2="203.7085" y1="814.0537" y2="819.0537"/><line style="stroke:#E7E7E7;stroke-width:1;" x1="203.7085" x2="662.7998" y1="819.0537" y2="819.0537"/><line style="stroke:#E7E7E7;stroke-width:1;" x1="662.7998" x2="662.7998" y1="819.0537" y2="834.0537"/><polygon fill="#E7E7E7" points="658.7998,824.0537,662.7998,834.0537,666.7998,824.0537,662.7998,828.0537" style="stroke:#E7E7E7;stroke-width:1;"/><line style="stroke:#E7E7E7;stroke-width:1;" x1="662.7998" x2="662.7998" y1="975.96" y2="980.96"/><line style="stroke:#E7E7E7;stroke-width:1;" x1="662.7998" x2="203.7085" y1="980.96" y2="980.96"/><line style="stroke:#E7E7E7;stroke-width:1;" x1="203.7085" x2="203.7085" y1="980.96" y2="995.96"/><polygon fill="#E7E7E7" points="199.7085,985.96,203.7085,995.96,207.7085,985.96,203.7085,989.96" style="stroke:#E7E7E7;stroke-width:1;"/><line style="stroke:#E7E7E7;stroke-width:1;" x1="203.7085" x2="203.7085" y1="1083.8975" y2="1088.8975"/><line style="stroke:#E7E7E7;stroke-width:1;" x1="203.7085" x2="662.7998" y1="1088.8975" y2="1088.8975"/><line style="stroke:#E7E7E7;stroke-width:1;" x1="662.7998" x2="662.7998" y1="1088.8975" y2="1103.8975"/><polygon fill="#E7E7E7" points="658.7998,1093.8975,662.7998,1103.8975,666.7998,1093.8975,662.7998,1097.8975" style="stroke:#E7E7E7;stroke-width:1;"/><line style="stroke:#E7E7E7;stroke-width:1;" x1="662.7998" x2="662.7998" y1="1191.835" y2="1196.835"/><line style="stroke:#E7E7E7;stroke-width:1;" x1="662.7998" x2="203.7085" y1="1196.835" y2="1196.835"/><line style="stroke:#E7E7E7;stroke-width:1;" x1="203.7085" x2="203.7085" y1="1196.835" y2="1211.835"/><polygon fill="#E7E7E7" points="199.7085,1201.835,203.7085,1211.835,207.7085,1201.835,203.7085,1205.835" style="stroke:#E7E7E7;stroke-width:1;"/><line style="stroke:#E7E7E7;stroke-width:1;" x1="203.7085" x2="203.7085" y1="1245.8037" y2="1250.8037"/><line style="stroke:#E7E7E7;stroke-width:1;" x1="203.7085" x2="662.7998" y1="1250.8037" y2="1250.8037"/><line style="stroke:#E7E7E7;stroke-width:1;" x1="662.7998" x2="662.7998" y1="1250.8037" y2="1265.8037"/><polygon fill="#E7E7E7" points="658.7998,1255.8037,662.7998,1265.8037,666.7998,1255.8037,662.7998,1259.8037" style="stroke:#E7E7E7;stroke-width:1;"/><line style="stroke:#E7E7E7;stroke-width:1;" x1="662.7998" x2="662.7998" y1="1299.7725" y2="1304.7725"/><line style="stroke:#E7E7E7;stroke-width:1;" x1="662.7998" x2="203.7085" y1="1304.7725" y2="1304.7725"/><line style="stroke:#E7E7E7;stroke-width:1;" x1="203.7085" x2="203.7085" y1="1304.7725" y2="1319.7725"/><polygon fill="#E7E7E7" points="199.7085,1309.7725,203.7085,1319.7725,207.7085,1309.7725,203.7085,1313.7725" style="stroke:#E7E7E7;stroke-width:1;"/><line style="stroke:#E7E7E7;stroke-width:1;" x1="203.7085" x2="203.7085" y1="1471.71" y2="1479.5088"/><line style="stroke:#E7E7E7;stroke-width:1;" x1="203.7085" x2="662.7998" y1="1479.5088" y2="1479.5088"/><line style="stroke:#E7E7E7;stroke-width:1;" x1="662.7998" x2="662.7998" y1="1479.5088" y2="1491.71"/><polygon fill="#E7E7E7" points="658.7998,1481.71,662.7998,1491.71,666.7998,1481.71,662.7998,1485.71" style="stroke:#E7E7E7;stroke-width:1;"/><line style="stroke:#E7E7E7;stroke-width:1;" x1="868.0498" x2="868.0498" y1="1672.0498" y2="1677.0498"/><line style="stroke:#E7E7E7;stroke-width:1;" x1="868.0498" x2="203.7085" y1="1677.0498" y2="1677.0498"/><line style="stroke:#E7E7E7;stroke-width:1;" x1="203.7085" x2="203.7085" y1="1677.0498" y2="1692.0498"/><polygon fill="#E7E7E7" points="199.7085,1682.0498,203.7085,1692.0498,207.7085,1682.0498,203.7085,1686.0498" style="stroke:#E7E7E7;stroke-width:1;"/><line style="stroke:#E7E7E7;stroke-width:1;" x1="868.0498" x2="868.0498" y1="1963.9248" y2="1968.9248"/><line style="stroke:#E7E7E7;stroke-width:1;" x1="868.0498" x2="203.7085" y1="1968.9248" y2="1968.9248"/><line style="stroke:#E7E7E7;stroke-width:1;" x1="203.7085" x2="203.7085" y1="1968.9248" y2="1983.9248"/><polygon fill="#E7E7E7" points="199.7085,1973.9248,203.7085,1983.9248,207.7085,1973.9248,203.7085,1977.9248" style="stroke:#E7E7E7;stroke-width:1;"/><line style="stroke:#E7E7E7;stroke-width:1;" x1="203.7085" x2="203.7085" y1="2071.8623" y2="2079.6611"/><line style="stroke:#E7E7E7;stroke-width:1;" x1="203.7085" x2="868.0498" y1="2079.6611" y2="2079.6611"/><line style="stroke:#E7E7E7;stroke-width:1;" x1="868.0498" x2="868.0498" y1="2079.6611" y2="2091.8623"/><polygon fill="#E7E7E7" points="864.0498,2081.8623,868.0498,2091.8623,872.0498,2081.8623,868.0498,2085.8623" style="stroke:#E7E7E7;stroke-width:1;"/><line style="stroke:#E7E7E7;stroke-width:1;" x1="662.7998" x2="662.7998" y1="1515.71" y2="1520.71"/><line style="stroke:#E7E7E7;stroke-width:1;" x1="662.7998" x2="868.0498" y1="1520.71" y2="1520.71"/><line style="stroke:#E7E7E7;stroke-width:1;" x1="868.0498" x2="868.0498" y1="1520.71" y2="1535.71"/><polygon fill="#E7E7E7" points="864.0498,1525.71,868.0498,1535.71,872.0498,1525.71,868.0498,1529.71" style="stroke:#E7E7E7;stroke-width:1;"/><line style="stroke:#E7E7E7;stroke-width:1;" x1="1061.502" x2="1061.502" y1="2326.1709" y2="2343.6709"/><line style="stroke:#E7E7E7;stroke-width:1;" x1="1061.502" x2="203.7085" y1="2343.6709" y2="2343.6709"/><line style="stroke:#E7E7E7;stroke-width:1;" x1="203.7085" x2="203.7085" y1="2343.6709" y2="2361.1709"/><polygon fill="#E7E7E7" points="199.7085,2351.1709,203.7085,2361.1709,207.7085,2351.1709,203.7085,2355.1709" style="stroke:#E7E7E7;stroke-width:1;"/><line style="stroke:#E7E7E7;stroke-width:1;" x1="203.7085" x2="203.7085" y1="2503.0771" y2="2510.876"/><line style="stroke:#E7E7E7;stroke-width:1;" x1="203.7085" x2="1061.502" y1="2510.876" y2="2510.876"/><line style="stroke:#E7E7E7;stroke-width:1;" x1="1061.502" x2="1061.502" y1="2510.876" y2="2523.0771"/><polygon fill="#E7E7E7" points="1057.502,2513.0771,1061.502,2523.0771,1065.502,2513.0771,1061.502,2517.0771" style="stroke:#E7E7E7;stroke-width:1;"/><line style="stroke:#E7E7E7;stroke-width:1;" x1="868.0498" x2="868.0498" y1="2115.8623" y2="2120.8623"/><line style="stroke:#E7E7E7;stroke-width:1;" x1="868.0498" x2="1061.502" y1="2120.8623" y2="2120.8623"/><line style="stroke:#E7E7E7;stroke-width:1;" x1="1061.502" x2="1061.502" y1="2120.8623" y2="2135.8623"/><polygon fill="#E7E7E7" points="1057.502,2125.8623,1061.502,2135.8623,1065.502,2125.8623,1061.502,2129.8623" style="stroke:#E7E7E7;stroke-width:1;"/><line style="stroke:#E7E7E7;stroke-width:1;" x1="1061.502" x2="1061.502" y1="2547.0771" y2="2552.0771"/><line style="stroke:#E7E7E7;stroke-width:1;" x1="1061.502" x2="478.5869" y1="2552.0771" y2="2552.0771"/><line style="stroke:#E7E7E7;stroke-width:1;" x1="478.5869" x2="478.5869" y1="2552.0771" y2="2567.0771"/><polygon fill="#E7E7E7" points="474.5869,2557.0771,478.5869,2567.0771,482.5869,2557.0771,478.5869,2561.0771" style="stroke:#E7E7E7;stroke-width:1;"/><text fill="#FFFFFF" font-family="sans-serif" font-size="18" lengthAdjust="spacing" textLength="67.1221" x="170.0571" y="66.75">System</text><text fill="#FFFFFF" font-family="sans-serif" font-size="18" lengthAdjust="spacing" textLength="41.0273" x="457.0732" y="66.75">User</text><text fill="#FFFFFF" font-family="sans-serif" font-size="18" lengthAdjust="spacing" textLength="123.0205" x="614.7896" y="66.75">Administrator</text><text fill="#FFFFFF" font-family="sans-serif" font-size="18" lengthAdjust="spacing" textLength="42.1875" x="860.4561" y="66.75">Staff</text><text fill="#FFFFFF" font-family="sans-serif" font-size="18" lengthAdjust="spacing" textLength="70.8574" x="1039.5732" y="66.75">Student</text><!--SRC=[VLJBRjim4BphA_RI8Za4VQ0d6q7Ws6vHe4a3FmBqk9PMyZOqgP9K30Fv-799oLOKjnS1uhvcXhFqx1N1qZS5QGyFP4jZTwXpWZkZsHlBkeBbmNdQmHLCSi_Fx0ymOwmixhBi9SLUCkVH-cpqioODaxfMdADdeySXPUt8lcIZ9IdAFIoCed4sccjF5dwOYZLCBSbuHkN6lPPSmaKl18-ekBYv1ByDCov-aRlC04OBAjXAOszWXcwxCMYBSKRA4LpScvYpt9ezpAqr5kx8EQm20W3dJPsHBhWCGoV5ZZKxRp6GJhC5ALnVGmmDnzwX3crWQXhhoC5xM3QRtm66aywZgT4bLuqDCg9zYXhcMzg5iHATQskKwbINWYFd4Fr6cW8AWa-VhmgkE5pBuZvsZG9891p0MlEV9gIwDF5ODQCI6nMAqBcz4Ib4W42pBpFCTyWgeXao5_IMf5FY5kidpd6bEyHEjEwYlOAbnx8C9ibDynzQCMjg2ZeXIuMlRN0MMOjZXUv9CCIwjeqFpB5Gh1Ec_kXxuxayTDddEpyoxM61MYxB3R5FKUMD4l0hur75Iur9OfFu0okceJK5bh4U9ghUuePyM0cb3bBMD-U9bKoFqMZ9pfWHzMj3ngEX8IE1r8cAg91hbObh9mT3OQJdBOMDfwDsPpZCDMx2t4bH9DvmstWlc_s6nupTFrFRTUlOHI29MHmXZy5gIyOUJk9sRmHktfnzbwy-tSJWlewBykNZErWqghKQFbDNS58tEdgeRpmyg_23DIMt3TTrsaQopWYO6VcmLGbEczrxKAUObh4FD2XMApnqZyVLdXtro9vy9zlyuMleBfVlcnJkgjCgjlxfcBMlRdXXJHEMKTJ_2m00]--></g></svg>